<?xml version="1.0" encoding="utf-8"?>
<!-- Generator: Adobe Illustrator 27.5.0, SVG Export Plug-In . SVG Version: 6.00 Build 0)  -->
<svg version="1.1" xmlns="http://www.w3.org/2000/svg" xmlns:xlink="http://www.w3.org/1999/xlink" x="0px" y="0px"
	 viewBox="0 0 3710 3710" style="enable-background:new 0 0 3710 3710;" xml:space="preserve">
<g id="Background">
	<g>
		<g>
			<rect style="fill:#FFFFFF;" width="3710" height="3710"/>
		</g>
	</g>
</g>
<g id="Illustration">
	<g>
		
			<linearGradient id="SVGID_1_" gradientUnits="userSpaceOnUse" x1="-3151.2136" y1="5303.5229" x2="-5164.5645" y2="3130.3821" gradientTransform="matrix(-0.9973 0.0997 -0.0987 -0.9865 -2489.2363 5830.832)">
			<stop  offset="0" style="stop-color:#DAE3FE"/>
			<stop  offset="1" style="stop-color:#E9EFFD"/>
		</linearGradient>
		<path style="fill:url(#SVGID_1_);" d="M531.99,1478.481C744.115,812.971,1445.056,466.133,2020.396,455.78
			c157.091-2.827,473.162-8.514,740.847,195.973c514.071,392.706,533.591,1319.079,137.691,1905.219
			c-50.984,75.482-405.432,582.495-1031.16,638.76c-458.124,41.194-804.929-182.398-847.176-210.349
			c-53.369-35.31-171.766-120.06-285.023-261.967C469.46,2389.982,399.433,1894.358,531.99,1478.481z"/>
		<g>
			<g>
				<path style="fill:#91B3FA;" d="M2471.895,2197.946c0,0-8.99-377.973,165.101-479.135
					c174.09-101.163,505.098-164.409,517.505-707.143c7.265-317.74,15.126-456.662,20.396-517.238
					c2.055-23.63-18.943-42.703-42.251-38.313c-164.878,31.06-700.496,158.907-812.793,524.49
					C2186.724,1414.01,2471.895,2197.946,2471.895,2197.946z"/>
				<path style="fill:#7D97F4;" d="M3005.134,607.122c-180.987,161.415-390.265,447.085-501.812,732.757
					c-14.319,47.08-56.201,147.202-74.389,325.091c-16.245,148.363-8.169,305.138,11.529,408.915
					c1.246,6.561,7.573,10.87,14.134,9.624c11.281-2.14,9.781-14.274,9.679-13.891c-22.496-177.305-13.158-397.992,38.389-597.116
					c65.856-244.5,212.74-481.552,364.666-682.606l15.634-19.798c117.706-151.163,142.486-152.276,131.482-162.813
					C3011.846,604.798,3007.778,604.776,3005.134,607.122z"/>
			</g>
			<g>
				<path style="fill:#BDD0FB;" d="M2259.877,2790.234c-23.542,11.573,222.678-298.701,299.409-785.693
					c36.157-229.483,36.338-516.96,166.927-627.877c106.687-90.615,397.141-146.126,499.894-163.411
					c16.805-2.827,30.652,13.078,25.543,29.335c-27.19,86.53-97.463,311.591-131.329,433.374
					c-42.515,152.884-187.725,250.247-317.785,276.69c-130.061,26.442-202.4,52.049-265.562,260.153
					C2473.813,2420.908,2326.77,2757.349,2259.877,2790.234z"/>
				<path style="fill:#91B3FA;" d="M3098.488,1384.359c-151.256,32.283-302.965,129.58-363.784,274.044l-5.718,13.771
					c-13.131,32.242-80.4,257.013-108.117,438.567c-0.344,2.263,1.21,4.378,3.473,4.724c3.844,0.586,4.986-3.729,4.699-3.316
					c23.163-103.841,59.21-236.63,88.938-336.402c31.586-108.727,54.076-182.547,154.003-266.583
					c111.62-91.184,228.429-118.479,228.087-118.346c1.77-0.49,2.808-2.323,2.318-4.093
					C3101.916,1385.022,3100.193,1383.999,3098.488,1384.359z"/>
			</g>
		</g>
		<g>
			<g>
				
					<linearGradient id="SVGID_00000179630785297602288890000013179903906129180063_" gradientUnits="userSpaceOnUse" x1="1879.2625" y1="751.104" x2="1806.666" y2="3120.8359">
					<stop  offset="0" style="stop-color:#09005D"/>
					<stop  offset="1" style="stop-color:#1A0F91"/>
				</linearGradient>
				<path style="fill:url(#SVGID_00000179630785297602288890000013179903906129180063_);" d="M586.728,2876.22
					c0,24.81,20.319,45.109,45.153,45.109h2441.681c24.834,0,45.153-20.299,45.153-45.109l20.317-1403.167
					c0-24.809-29.23-73.246-82.801-69.606l-2386.28-61.745c-31.16-0.806-61.287,11.187-83.352,33.18
					c-22.065,21.994-34.139,52.064-33.402,83.195L586.728,2876.22z"/>
				<path style="fill:#7D97F4;" d="M631.305,2832.943c0,23.494,19.223,42.718,42.718,42.718h2340.656
					c23.495,0,42.718-19.223,42.718-42.718l19.172-1273.807c-2.258-76.655-69.463-104.205-110.201-102.578L679.335,1395.2
					c-21.891-0.587-43.056,7.847-58.561,23.312c-15.504,15.465-24.032,36.63-23.482,58.521L631.305,2832.943z"/>
				<path style="fill:#91B3FA;" d="M677.52,2798.269c0,22.484,18.668,40.881,41.483,40.881h2273.025
					c22.816,0,41.483-18.397,41.483-40.881l18.618-1219.053c-2.193-73.36-67.456-99.726-107.017-98.169l-2220.95-58.72
					c-21.258-0.562-41.812,7.51-56.869,22.31c-15.057,14.8-23.337,35.055-22.804,56.006L677.52,2798.269z"/>
				<g>
					<path style="fill:#BDD0FB;" d="M3032.104,2052.743c-0.031,0-0.063,0-0.094,0c-3.459-0.039-6.221-2.233-6.167-4.904
						l1.515-79.713c0.05-2.642,2.843-4.759,6.255-4.759c0.031,0,0.063,0,0.094,0c3.458,0.039,6.22,2.233,6.167,4.904l-1.515,79.713
						C3038.309,2050.626,3035.516,2052.743,3032.104,2052.743z"/>
					<path style="fill:#BDD0FB;" d="M3035.822,1857.405c-0.031,0-0.063,0-0.094,0c-3.459-0.039-6.221-2.237-6.167-4.904
						l5.808-305.302c-0.109-18.135-7.242-32.614-21.205-42.937c-26.063-19.268-67.442-18.284-69.186-18.221l-730.986-15.126
						c-3.456-0.068-6.183-2.29-6.089-4.957c0.091-2.667,2.746-4.938,6.427-4.696l730.552,15.126
						c4.546-0.207,48.603-0.796,77.943,20.897c16.506,12.204,24.938,29.017,25.063,49.963l-5.811,305.398
						C3042.027,1855.288,3039.234,1857.405,3035.822,1857.405z"/>
				</g>
				
					<linearGradient id="SVGID_00000088102117453660228160000012918548760232321966_" gradientUnits="userSpaceOnUse" x1="1811.9161" y1="2869.0505" x2="1359.0995" y2="957.1529">
					<stop  offset="0" style="stop-color:#09005D"/>
					<stop  offset="1" style="stop-color:#1A0F91"/>
				</linearGradient>
				<path style="fill:url(#SVGID_00000088102117453660228160000012918548760232321966_);" d="M462.927,3037.81h2748.717
					c3.109,0,5.654-2.544,5.654-5.654v-111.98c0-3.109-2.544-5.654-5.654-5.654H462.927c-3.109,0-5.654,2.544-5.654,5.654v111.98
					C457.273,3035.265,459.818,3037.81,462.927,3037.81z"/>
			</g>
			<g>
				<g style="opacity:0.57;">
					<g style="opacity:0.67;">
						<rect x="690.171" y="1833.19" style="fill:#FFFFFF;" width="142.445" height="991.077"/>
					</g>
					<g style="opacity:0.67;">
						<rect x="881.471" y="1833.19" style="fill:#FFFFFF;" width="142.445" height="991.077"/>
					</g>
					<g style="opacity:0.67;">
						<rect x="1068.774" y="1833.19" style="fill:#FFFFFF;" width="142.445" height="991.077"/>
					</g>
					<g style="opacity:0.67;">
						<rect x="1260.074" y="1833.19" style="fill:#FFFFFF;" width="142.445" height="991.077"/>
					</g>
					<g style="opacity:0.67;">
						<rect x="1441.692" y="1833.19" style="fill:#FFFFFF;" width="142.445" height="991.077"/>
					</g>
					<g style="opacity:0.67;">
						<rect x="1632.991" y="1833.19" style="fill:#FFFFFF;" width="142.445" height="991.077"/>
					</g>
					<g style="opacity:0.67;">
						<rect x="1820.294" y="1833.19" style="fill:#FFFFFF;" width="142.445" height="991.077"/>
					</g>
					<g style="opacity:0.67;">
						<rect x="2011.594" y="1833.19" style="fill:#FFFFFF;" width="142.445" height="991.077"/>
					</g>
					<g style="opacity:0.67;">
						<rect x="2202.247" y="1833.19" style="fill:#FFFFFF;" width="142.445" height="991.077"/>
					</g>
					<g style="opacity:0.67;">
						<rect x="2393.547" y="1833.19" style="fill:#FFFFFF;" width="142.445" height="991.077"/>
					</g>
					<g style="opacity:0.67;">
						<rect x="2580.85" y="1833.19" style="fill:#FFFFFF;" width="142.445" height="991.077"/>
					</g>
					<g style="opacity:0.67;">
						<rect x="2772.15" y="1833.19" style="fill:#FFFFFF;" width="142.445" height="991.077"/>
					</g>
				</g>
				<g>
					<g>
						
							<linearGradient id="SVGID_00000028293556401675428110000003788783159767646393_" gradientUnits="userSpaceOnUse" x1="781.3443" y1="829.0505" x2="754.4711" y2="3301.2036">
							<stop  offset="0" style="stop-color:#4F52FF"/>
							<stop  offset="1" style="stop-color:#4042E2"/>
						</linearGradient>
						
							<rect x="691.034" y="2345.815" style="fill:url(#SVGID_00000028293556401675428110000003788783159767646393_);" width="142.445" height="478.452"/>
					</g>
					<g>
						
							<linearGradient id="SVGID_00000012430341216130587110000003768013500065136058_" gradientUnits="userSpaceOnUse" x1="971.8242" y1="831.2377" x2="944.9469" y2="3303.7751">
							<stop  offset="0" style="stop-color:#4F52FF"/>
							<stop  offset="1" style="stop-color:#4042E2"/>
						</linearGradient>
						
							<rect x="882.334" y="2199.34" style="fill:url(#SVGID_00000012430341216130587110000003768013500065136058_);" width="142.445" height="624.927"/>
					</g>
					<g>
						
							<linearGradient id="SVGID_00000096032372571142363680000006672772181198823810_" gradientUnits="userSpaceOnUse" x1="1160.5214" y1="834.439" x2="1133.6539" y2="3306.0688">
							<stop  offset="0" style="stop-color:#4F52FF"/>
							<stop  offset="1" style="stop-color:#4042E2"/>
						</linearGradient>
						
							<rect x="1069.636" y="2462.302" style="fill:url(#SVGID_00000096032372571142363680000006672772181198823810_);" width="142.445" height="361.965"/>
					</g>
					<g>
						
							<linearGradient id="SVGID_00000087411661850678550360000014247756107398996353_" gradientUnits="userSpaceOnUse" x1="1349.6624" y1="836.0143" x2="1322.7826" y2="3308.7739">
							<stop  offset="0" style="stop-color:#4F52FF"/>
							<stop  offset="1" style="stop-color:#4042E2"/>
						</linearGradient>
						
							<rect x="1260.936" y="2068.249" style="fill:url(#SVGID_00000087411661850678550360000014247756107398996353_);" width="142.445" height="756.018"/>
					</g>
					<g>
						
							<linearGradient id="SVGID_00000182528842598557706990000017147064551742217101_" gradientUnits="userSpaceOnUse" x1="1360.6598" y1="2508.1162" x2="1886.1556" y2="2078.6243">
							<stop  offset="0" style="stop-color:#4F52FF"/>
							<stop  offset="1" style="stop-color:#4042E2"/>
						</linearGradient>
						
							<rect x="1442.554" y="1941.679" style="fill:url(#SVGID_00000182528842598557706990000017147064551742217101_);" width="142.445" height="882.588"/>
					</g>
					<g>
						
							<linearGradient id="SVGID_00000160910725359758279950000009700925409970507144_" gradientUnits="userSpaceOnUse" x1="1725.1576" y1="842.4291" x2="1698.2982" y2="3313.3159">
							<stop  offset="0" style="stop-color:#4F52FF"/>
							<stop  offset="1" style="stop-color:#4042E2"/>
						</linearGradient>
						
							<rect x="1633.854" y="2555.327" style="fill:url(#SVGID_00000160910725359758279950000009700925409970507144_);" width="142.445" height="268.94"/>
					</g>
					<g>
						
							<linearGradient id="SVGID_00000023969056508404570760000008820811855739019907_" gradientUnits="userSpaceOnUse" x1="1910.9866" y1="843.7009" x2="1884.1115" y2="3316.0364">
							<stop  offset="0" style="stop-color:#4F52FF"/>
							<stop  offset="1" style="stop-color:#4042E2"/>
						</linearGradient>
						
							<rect x="1821.157" y="2286.707" style="fill:url(#SVGID_00000023969056508404570760000008820811855739019907_);" width="142.445" height="537.56"/>
					</g>
					<g>
						
							<linearGradient id="SVGID_00000058569339726934580610000017988105522850640827_" gradientUnits="userSpaceOnUse" x1="2101.7861" y1="846.0396" x2="2074.9087" y2="3318.5771">
							<stop  offset="0" style="stop-color:#4F52FF"/>
							<stop  offset="1" style="stop-color:#4042E2"/>
						</linearGradient>
						
							<rect x="2012.456" y="2199.34" style="fill:url(#SVGID_00000058569339726934580610000017988105522850640827_);" width="142.445" height="624.927"/>
					</g>
					<g>
						
							<linearGradient id="SVGID_00000146479346212744553310000005189025865264839301_" gradientUnits="userSpaceOnUse" x1="2293.1125" y1="848.8079" x2="2266.2388" y2="3321.0212">
							<stop  offset="0" style="stop-color:#4F52FF"/>
							<stop  offset="1" style="stop-color:#4042E2"/>
						</linearGradient>
						
							<rect x="2203.11" y="2328.729" style="fill:url(#SVGID_00000146479346212744553310000005189025865264839301_);" width="142.445" height="495.539"/>
					</g>
					<g>
						
							<linearGradient id="SVGID_00000043437204763997852960000015988220135540610209_" gradientUnits="userSpaceOnUse" x1="2482.6064" y1="850.7883" x2="2455.7258" y2="3323.6313">
							<stop  offset="0" style="stop-color:#4F52FF"/>
							<stop  offset="1" style="stop-color:#4042E2"/>
						</linearGradient>
						
							<rect x="2394.409" y="2000.444" style="fill:url(#SVGID_00000043437204763997852960000015988220135540610209_);" width="142.445" height="823.823"/>
					</g>
					<g>
						
							<linearGradient id="SVGID_00000085933252664424183450000002856528681772548992_" gradientUnits="userSpaceOnUse" x1="2670.2502" y1="853.3151" x2="2643.3706" y2="3326.0747">
							<stop  offset="0" style="stop-color:#4F52FF"/>
							<stop  offset="1" style="stop-color:#4042E2"/>
						</linearGradient>
						
							<rect x="2581.712" y="2068.249" style="fill:url(#SVGID_00000085933252664424183450000002856528681772548992_);" width="142.445" height="756.018"/>
					</g>
					<g>
						
							<linearGradient id="SVGID_00000134943785361566609700000016451020217170386613_" gradientUnits="userSpaceOnUse" x1="2862.0374" y1="855.9445" x2="2835.1592" y2="3328.5535">
							<stop  offset="0" style="stop-color:#4F52FF"/>
							<stop  offset="1" style="stop-color:#4042E2"/>
						</linearGradient>
						
							<rect x="2773.012" y="2163.152" style="fill:url(#SVGID_00000134943785361566609700000016451020217170386613_);" width="142.445" height="661.115"/>
					</g>
				</g>
			</g>
		</g>
		<g>
			
				<linearGradient id="SVGID_00000142884507937844908920000009362265157363917747_" gradientUnits="userSpaceOnUse" x1="2075.074" y1="1077.4841" x2="1956.7244" y2="1983.1189">
				<stop  offset="0" style="stop-color:#FF928E"/>
				<stop  offset="1" style="stop-color:#FE7062"/>
			</linearGradient>
			<path style="fill:url(#SVGID_00000142884507937844908920000009362265157363917747_);" d="M2717.198,1924.985H1302.705
				c-15.222,0-27.561-12.34-27.561-27.561V1254.2c0-15.222,12.34-27.561,27.561-27.561h1414.493
				c15.222,0,27.561,12.34,27.561,27.561v643.223C2744.76,1912.645,2732.42,1924.985,2717.198,1924.985z"/>
			<path style="opacity:0.67;fill:#FFFFFF;" d="M2678.679,1894.846H1335.855c-15.222,0-27.561-12.34-27.561-27.561v-590.099
				c0-15.222,12.34-27.561,27.561-27.561h1342.823c15.222,0,27.561,12.34,27.561,27.561v590.099
				C2706.24,1882.507,2693.9,1894.846,2678.679,1894.846z"/>
			<g>
				
					<linearGradient id="SVGID_00000013895285815722330230000016179422639353337250_" gradientUnits="userSpaceOnUse" x1="1818.8124" y1="1053.1362" x2="1702.5975" y2="1942.4354">
					<stop  offset="0" style="stop-color:#FF928E"/>
					<stop  offset="1" style="stop-color:#FE7062"/>
				</linearGradient>
				<path style="fill:url(#SVGID_00000013895285815722330230000016179422639353337250_);" d="M1841.425,1709.179
					c29.567-43.608,46.844-96.227,46.844-152.883c0-104.033-58.246-194.452-143.9-240.454l-128.871,240.454L1841.425,1709.179z"/>
				
					<linearGradient id="SVGID_00000155866257976729640940000006832317597780132021_" gradientUnits="userSpaceOnUse" x1="1794.0516" y1="1085.4966" x2="1695.2357" y2="1247.1953">
					<stop  offset="0" style="stop-color:#FF928E"/>
					<stop  offset="1" style="stop-color:#FE7062"/>
				</linearGradient>
				<path style="fill:url(#SVGID_00000155866257976729640940000006832317597780132021_);" d="M1744.369,1315.843
					c-38.379-20.613-82.256-32.316-128.871-32.316c-18.846,0-37.246,1.911-55.016,5.551l55.016,267.22L1744.369,1315.843z"/>
				<path style="fill:#91B3FA;" d="M1560.483,1289.077c-61.637,12.624-115.689,46.045-154.527,92.6l209.543,174.619
					L1560.483,1289.077z"/>
				
					<linearGradient id="SVGID_00000064317983147861445970000014087739188112979855_" gradientUnits="userSpaceOnUse" x1="1642.0364" y1="1163.6257" x2="1551.0847" y2="2421.782">
					<stop  offset="0" style="stop-color:#4F52FF"/>
					<stop  offset="1" style="stop-color:#4042E2"/>
				</linearGradient>
				<path style="fill:url(#SVGID_00000064317983147861445970000014087739188112979855_);" d="M1615.499,1556.297l-248.773,112.031
					c42.746,94.773,138.055,160.74,248.773,160.74c93.991,0,176.875-47.543,225.926-119.888L1615.499,1556.297z"/>
				
					<linearGradient id="SVGID_00000058588688258372163520000001471077323569334417_" gradientUnits="userSpaceOnUse" x1="1363.6298" y1="1468.9872" x2="1615.4985" y2="1468.9872">
					<stop  offset="0" style="stop-color:#DAE3FE"/>
					<stop  offset="1" style="stop-color:#E9EFFD"/>
				</linearGradient>
				<path style="fill:url(#SVGID_00000058588688258372163520000001471077323569334417_);" d="M1405.955,1381.677
					c-17.39,20.845-31.726,44.323-42.326,69.751c96.572,37.809,251.869,104.868,251.869,104.868L1405.955,1381.677z"/>
				<path style="fill:#7D97F4;" d="M1363.63,1451.429c-13.458,32.286-20.902,67.706-20.902,104.868
					c0,39.929,8.582,77.852,23.998,112.031l248.773-112.031C1615.499,1556.297,1460.202,1489.238,1363.63,1451.429z"/>
			</g>
			<g style="opacity:0.78;">
				<path style="fill:#FFFFFF;" d="M2224.096,1384.341H1975.15c-10.414,0-18.856,6.514-18.856,14.549
					c0,8.036,8.442,14.549,18.856,14.549h248.946c10.414,0,18.856-6.514,18.856-14.549
					C2242.952,1390.855,2234.51,1384.341,2224.096,1384.341z"/>
				<path style="fill:#FFFFFF;" d="M2224.096,1448.765H1975.15c-10.414,0-18.856,6.514-18.856,14.55
					c0,8.035,8.442,14.549,18.856,14.549h248.946c10.414,0,18.856-6.514,18.856-14.549
					C2242.952,1455.279,2234.51,1448.765,2224.096,1448.765z"/>
				<path style="fill:#FFFFFF;" d="M2224.096,1706.458H1975.15c-10.414,0-18.856,6.514-18.856,14.549
					c0,8.036,8.442,14.549,18.856,14.549h248.946c10.414,0,18.856-6.514,18.856-14.549
					C2242.952,1712.972,2234.51,1706.458,2224.096,1706.458z"/>
				<path style="fill:#FFFFFF;" d="M2224.096,1642.035H1975.15c-10.414,0-18.856,6.514-18.856,14.55
					c0,8.036,8.442,14.55,18.856,14.55h248.946c10.414,0,18.856-6.514,18.856-14.55
					C2242.952,1648.549,2234.51,1642.035,2224.096,1642.035z"/>
				<path style="fill:#FFFFFF;" d="M2224.096,1577.611H1975.15c-10.414,0-18.856,6.514-18.856,14.55
					c0,8.036,8.442,14.549,18.856,14.549h248.946c10.414,0,18.856-6.514,18.856-14.549
					C2242.952,1584.125,2234.51,1577.611,2224.096,1577.611z"/>
			</g>
			<g style="opacity:0.78;">
				<path style="fill:#FFFFFF;" d="M2631.509,1385.707h-248.946c-10.414,0-18.856,6.514-18.856,14.55
					c0,8.035,8.442,14.549,18.856,14.549h248.946c10.414,0,18.856-6.514,18.856-14.549
					C2650.365,1392.221,2641.923,1385.707,2631.509,1385.707z"/>
				<path style="fill:#FFFFFF;" d="M2631.509,1450.13h-248.946c-10.414,0-18.856,6.514-18.856,14.549
					c0,8.036,8.442,14.55,18.856,14.55h248.946c10.414,0,18.856-6.514,18.856-14.55
					C2650.365,1456.644,2641.923,1450.13,2631.509,1450.13z"/>
				<path style="fill:#FFFFFF;" d="M2631.509,1707.823h-248.946c-10.414,0-18.856,6.514-18.856,14.549
					c0,8.036,8.442,14.549,18.856,14.549h248.946c10.414,0,18.856-6.514,18.856-14.549
					C2650.365,1714.337,2641.923,1707.823,2631.509,1707.823z"/>
				<path style="fill:#FFFFFF;" d="M2631.509,1643.4h-248.946c-10.414,0-18.856,6.514-18.856,14.549
					c0,8.036,8.442,14.55,18.856,14.55h248.946c10.414,0,18.856-6.514,18.856-14.55
					C2650.365,1649.914,2641.923,1643.4,2631.509,1643.4z"/>
				<path style="fill:#FFFFFF;" d="M2631.509,1578.977h-248.946c-10.414,0-18.856,6.514-18.856,14.55
					c0,8.036,8.442,14.549,18.856,14.549h248.946c10.414,0,18.856-6.514,18.856-14.549
					C2650.365,1585.491,2641.923,1578.977,2631.509,1578.977z"/>
			</g>
		</g>
		<g>
			
				<linearGradient id="SVGID_00000084505809053432976030000007989273540784897685_" gradientUnits="userSpaceOnUse" x1="1163.2886" y1="943.0681" x2="475.4316" y2="2734.52">
				<stop  offset="0" style="stop-color:#FF928E"/>
				<stop  offset="1" style="stop-color:#FE7062"/>
			</linearGradient>
			<path style="fill:url(#SVGID_00000084505809053432976030000007989273540784897685_);" d="M705.33,1915.677h454.922
				c14.506,0,26.266-11.76,26.266-26.266v-681.366c0-14.479-11.717-26.227-26.196-26.266l-458.56-1.231
				c-14.589-0.039-26.414,11.818-26.336,26.406l3.638,682.597C679.141,1904.003,690.878,1915.677,705.33,1915.677z"/>
			<path style="opacity:0.6;fill:#FFFFFF;" d="M727.623,1214.168l406.773,2.504c14.703,0.091,26.556,12.072,26.488,26.775
				l-2.839,611.55c-0.067,14.482-11.686,26.26-26.166,26.524l-395.23,7.211c-14.761,0.27-26.929-11.512-27.136-26.274
				l-8.704-621.266C700.6,1226.264,712.693,1214.076,727.623,1214.168z"/>
			<path style="opacity:0.6;fill:#FFFFFF;" d="M744.162,1248.43v2.804c0,4.404,3.57,7.973,7.973,7.973h313.416
				c4.403,0,7.973-3.57,7.973-7.973v-2.804c0-4.404-3.57-7.973-7.973-7.973H752.135
				C747.732,1240.457,744.162,1244.026,744.162,1248.43z"/>
			<path style="opacity:0.6;fill:#FFFFFF;" d="M779.131,1283.703L779.131,1283.703c0.226,4.174,3.637,7.464,7.817,7.54
				l274.098,4.995c4.46,0.081,8.119-3.512,8.119-7.972v-0.651c0-4.354-3.493-7.903-7.847-7.972l-274.098-4.344
				C782.597,1275.227,778.881,1279.087,779.131,1283.703z"/>
			<path style="opacity:0.61;fill:#FFFFFF;" d="M751.155,1868.222c-12.539,0-22.872-10.12-23.094-22.689l-8.894-500.174
				c-0.227-12.711,9.932-23.256,22.645-23.504l370.086-7.205c6.2-0.077,12.019,2.17,16.466,6.451
				c4.448,4.281,6.961,10.035,7.078,16.205l9.539,502.927c0.118,6.201-2.194,12.067-6.511,16.518
				c-4.315,4.452-10.106,6.943-16.306,7.018l-370.732,4.45C751.341,1868.22,751.246,1868.222,751.155,1868.222z M1112.355,1322.969
				c-0.099,0-0.196,0.002-0.295,0.004l-370.086,7.205c-8.133,0.156-14.632,6.902-14.487,15.035l0,0l8.894,500.174
				c0.143,8.038,6.754,14.513,14.775,14.513c0.059,0,0.118,0,0.177-0.002l370.732-4.45c3.966-0.047,7.67-1.642,10.431-4.488
				c2.761-2.849,4.24-6.601,4.165-10.567l-9.539-502.927c-0.075-3.948-1.683-7.629-4.528-10.366
				C1119.82,1324.43,1116.193,1322.969,1112.355,1322.969z"/>
			<path style="opacity:0.61;fill:#FFFFFF;" d="M1131.885,1373.294H728.129c-2.298,0-4.161-1.863-4.161-4.161
				s1.863-4.161,4.161-4.161h403.756c2.298,0,4.161,1.863,4.161,4.161S1134.182,1373.294,1131.885,1373.294z"/>
			<g>
				<path style="opacity:0.73;fill:#FFFFFF;" d="M941.355,1771.411c-87.484,0-158.658-71.174-158.658-158.659
					c0-87.484,71.174-158.658,158.658-158.658c87.485,0,158.658,71.174,158.658,158.658
					C1100.013,1700.238,1028.839,1771.411,941.355,1771.411z M941.355,1503.851c-60.048,0-108.902,48.853-108.902,108.901
					c0,60.049,48.853,108.903,108.902,108.903c60.049,0,108.902-48.854,108.902-108.903
					C1050.257,1552.703,1001.404,1503.851,941.355,1503.851z"/>
				
					<linearGradient id="SVGID_00000129165273372826328160000017977208890627262137_" gradientUnits="userSpaceOnUse" x1="1159.3894" y1="966.9609" x2="1043.1747" y2="1856.2598">
					<stop  offset="0" style="stop-color:#FF928E"/>
					<stop  offset="1" style="stop-color:#FE7062"/>
				</linearGradient>
				<path style="fill:url(#SVGID_00000129165273372826328160000017977208890627262137_);" d="M1099.57,1600.883l-49.617,3.723
					c0.2,2.69,0.304,5.406,0.304,8.147c0,12.976-2.285,25.427-6.468,36.977l46.802,16.894c6.093-16.827,9.422-34.967,9.422-53.871
					C1100.013,1608.76,1099.861,1604.802,1099.57,1600.883z"/>
				<path style="fill:#7D97F4;" d="M941.355,1721.655c-60.048,0-108.902-48.854-108.902-108.903
					c0-60.049,48.853-108.901,108.902-108.901c9.149,0,18.035,1.14,26.53,3.275l12.122-48.26c-12.377-3.11-25.324-4.77-38.652-4.77
					c-87.484,0-158.658,71.174-158.658,158.658c0,87.485,71.174,158.659,158.658,158.659c68.581,0,127.132-43.741,149.236-104.788
					l-46.802-16.894C1028.617,1691.631,988.428,1721.655,941.355,1721.655z"/>
				
					<linearGradient id="SVGID_00000096770227714252001510000004543206833665282191_" gradientUnits="userSpaceOnUse" x1="1150.0684" y1="965.743" x2="1033.8533" y2="1855.0441">
					<stop  offset="0" style="stop-color:#FEBBBA"/>
					<stop  offset="1" style="stop-color:#FF928E"/>
				</linearGradient>
				<path style="fill:url(#SVGID_00000096770227714252001510000004543206833665282191_);" d="M1049.953,1604.606l49.617-3.723
					c-1.525-20.526-6.977-39.975-15.599-57.604l-44.725,21.788C1045.164,1577.167,1048.906,1590.516,1049.953,1604.606z"/>
			</g>
		</g>
		<g>
			<g>
				
					<linearGradient id="SVGID_00000042727275075491193320000012707231679841487508_" gradientUnits="userSpaceOnUse" x1="3086.8345" y1="2374.4348" x2="2930.1973" y2="3228.3616">
					<stop  offset="0" style="stop-color:#E1473D"/>
					<stop  offset="1" style="stop-color:#E9605A"/>
				</linearGradient>
				
					<circle style="fill:url(#SVGID_00000042727275075491193320000012707231679841487508_);" cx="2976.13" cy="2977.955" r="271.527"/>
				
					<linearGradient id="SVGID_00000116224678012214492170000008681675976298063804_" gradientUnits="userSpaceOnUse" x1="3204.012" y1="1234.1543" x2="3087.7971" y2="2123.4539">
					<stop  offset="0" style="stop-color:#FF928E"/>
					<stop  offset="1" style="stop-color:#FE7062"/>
				</linearGradient>
				
					<circle style="fill:url(#SVGID_00000116224678012214492170000008681675976298063804_);" cx="2976.13" cy="2977.955" r="262.498"/>
				<path style="opacity:0.78;fill:#FFFFFF;" d="M2759.673,2874.453c-0.84,0-1.692-0.19-2.492-0.595
					c-2.731-1.378-3.828-4.71-2.449-7.442c42.442-84.083,127.277-136.316,221.399-136.316c15.017,0,30.059,1.353,44.707,4.022
					c3.011,0.549,5.006,3.433,4.458,6.444c-0.549,3.012-3.443,5-6.444,4.458c-13.995-2.551-28.368-3.844-42.721-3.844
					c-89.916,0-170.96,49.901-211.507,130.229C2763.648,2873.34,2761.697,2874.453,2759.673,2874.453z"/>
				
					<ellipse transform="matrix(0.7071 -0.7071 0.7071 0.7071 -1236.4126 2982.3838)" style="opacity:0.78;fill:#FFFFFF;" cx="2981.849" cy="2983.674" rx="222.172" ry="222.172"/>
				<g>
					
						<linearGradient id="SVGID_00000183945205094905051310000005651285835618460288_" gradientUnits="userSpaceOnUse" x1="3212.843" y1="1235.3104" x2="3096.6284" y2="2124.6082">
						<stop  offset="0" style="stop-color:#FF928E"/>
						<stop  offset="1" style="stop-color:#FE7062"/>
					</linearGradient>
					<path style="fill:url(#SVGID_00000183945205094905051310000005651285835618460288_);" d="M2960.047,3148.84v-24.171
						c-25.197-1.009-50.121-6.956-67.823-14.705c-6.321-2.766-9.543-9.861-7.728-16.518l6.141-22.514
						c2.252-8.259,11.235-12.531,19.131-9.223c17.559,7.361,39.241,13.186,62.62,13.186c24.27,0,42.369-8.229,42.369-25.094
						c0-15.22-13.986-24.269-47.716-33.317c-48.128-13.164-82.683-34.144-82.683-76.513c0-38.258,27.973-67.463,76.512-75.277
						v-24.174c0-7.778,6.306-14.083,14.084-14.083h14.202c7.777,0,14.084,6.305,14.084,14.083v21.704
						c23.316,0.934,40.288,4.92,53.757,9.654c6.901,2.424,10.672,9.858,8.757,16.918l-5.647,20.822
						c-2.177,8.03-10.759,12.428-18.54,9.485c-12.401-4.689-29.934-9.572-52.726-9.572c-28.795,0-37.021,11.927-37.021,22.624
						c0,13.163,17.277,22.213,54.709,33.732c53.478,16.041,75.69,38.254,75.69,78.156c0,36.611-27.149,69.52-79.802,77.748v27.051
						c0,7.778-6.306,14.084-14.083,14.084h-14.204C2966.353,3162.924,2960.047,3156.618,2960.047,3148.84z"/>
				</g>
			</g>
			<g>
				
					<linearGradient id="SVGID_00000117659635259286461440000008921557426940571815_" gradientUnits="userSpaceOnUse" x1="2806.9475" y1="2323.0947" x2="2650.3103" y2="3177.0215">
					<stop  offset="0" style="stop-color:#E1473D"/>
					<stop  offset="1" style="stop-color:#E9605A"/>
				</linearGradient>
				
					<circle style="fill:url(#SVGID_00000117659635259286461440000008921557426940571815_);" cx="2686.825" cy="2977.955" r="271.527"/>
				
					<linearGradient id="SVGID_00000010269912311103383540000005075563164650318511_" gradientUnits="userSpaceOnUse" x1="2919.5649" y1="1196.9867" x2="2803.3501" y2="2086.2864">
					<stop  offset="0" style="stop-color:#FF928E"/>
					<stop  offset="1" style="stop-color:#FE7062"/>
				</linearGradient>
				
					<circle style="fill:url(#SVGID_00000010269912311103383540000005075563164650318511_);" cx="2686.825" cy="2977.955" r="262.498"/>
				<path style="opacity:0.78;fill:#FFFFFF;" d="M2470.368,2874.453c-0.84,0-1.692-0.19-2.492-0.595
					c-2.731-1.378-3.828-4.71-2.449-7.442c42.442-84.083,127.277-136.316,221.399-136.316c15.017,0,30.059,1.353,44.708,4.022
					c3.01,0.549,5.006,3.433,4.458,6.444c-0.549,3.012-3.444,5-6.444,4.458c-13.996-2.551-28.369-3.844-42.722-3.844
					c-89.916,0-170.96,49.901-211.507,130.229C2474.344,2873.34,2472.393,2874.453,2470.368,2874.453z"/>
				
					<ellipse transform="matrix(0.7071 -0.7071 0.7071 0.7071 -1321.1479 2777.8147)" style="opacity:0.78;fill:#FFFFFF;" cx="2692.545" cy="2983.674" rx="222.172" ry="222.172"/>
				<g>
					
						<linearGradient id="SVGID_00000113326128802150729130000003787909063719216518_" gradientUnits="userSpaceOnUse" x1="2928.3967" y1="1198.1368" x2="2812.1821" y2="2087.4346">
						<stop  offset="0" style="stop-color:#FF928E"/>
						<stop  offset="1" style="stop-color:#FE7062"/>
					</linearGradient>
					<path style="fill:url(#SVGID_00000113326128802150729130000003787909063719216518_);" d="M2670.742,3148.84v-24.171
						c-25.198-1.009-50.121-6.956-67.823-14.705c-6.321-2.766-9.543-9.861-7.728-16.518l6.141-22.514
						c2.252-8.259,11.235-12.531,19.131-9.223c17.559,7.361,39.241,13.186,62.62,13.186c24.269,0,42.369-8.229,42.369-25.094
						c0-15.22-13.986-24.269-47.717-33.317c-48.128-13.164-82.683-34.144-82.683-76.513c0-38.258,27.973-67.463,76.512-75.277
						v-24.174c0-7.778,6.306-14.083,14.084-14.083h14.202c7.778,0,14.083,6.305,14.083,14.083v21.704
						c23.316,0.934,40.289,4.92,53.758,9.654c6.901,2.424,10.672,9.858,8.758,16.918l-5.647,20.822
						c-2.177,8.03-10.759,12.428-18.54,9.485c-12.401-4.689-29.935-9.572-52.726-9.572c-28.795,0-37.021,11.927-37.021,22.624
						c0,13.163,17.277,22.213,54.709,33.732c53.477,16.041,75.69,38.254,75.69,78.156c0,36.611-27.149,69.52-79.802,77.748v27.051
						c0,7.778-6.306,14.084-14.083,14.084h-14.204C2677.048,3162.924,2670.742,3156.618,2670.742,3148.84z"/>
				</g>
			</g>
			<g>
				
					<linearGradient id="SVGID_00000047740991210353160110000002405350885820140176_" gradientUnits="userSpaceOnUse" x1="2527.0605" y1="2271.7544" x2="2370.4236" y2="3125.6812">
					<stop  offset="0" style="stop-color:#E1473D"/>
					<stop  offset="1" style="stop-color:#E9605A"/>
				</linearGradient>
				
					<circle style="fill:url(#SVGID_00000047740991210353160110000002405350885820140176_);" cx="2397.521" cy="2977.955" r="271.526"/>
				
					<linearGradient id="SVGID_00000183208708774929470220000017863387735798949556_" gradientUnits="userSpaceOnUse" x1="2635.1182" y1="1159.8138" x2="2518.9033" y2="2049.1135">
					<stop  offset="0" style="stop-color:#FF928E"/>
					<stop  offset="1" style="stop-color:#FE7062"/>
				</linearGradient>
				
					<circle style="fill:url(#SVGID_00000183208708774929470220000017863387735798949556_);" cx="2397.521" cy="2977.955" r="262.498"/>
				<path style="opacity:0.78;fill:#FFFFFF;" d="M2181.063,2874.453c-0.84,0-1.692-0.19-2.492-0.595
					c-2.731-1.378-3.828-4.71-2.449-7.442c42.442-84.083,127.277-136.316,221.399-136.316c15.017,0,30.059,1.353,44.708,4.022
					c3.01,0.549,5.006,3.433,4.458,6.444c-0.549,3.012-3.445,5-6.444,4.458c-13.996-2.551-28.369-3.844-42.722-3.844
					c-89.916,0-170.96,49.901-211.507,130.229C2185.039,2873.34,2183.088,2874.453,2181.063,2874.453z"/>
				
					<ellipse transform="matrix(0.7071 -0.7071 0.7071 0.7071 -1405.8832 2573.2456)" style="opacity:0.78;fill:#FFFFFF;" cx="2403.241" cy="2983.674" rx="222.172" ry="222.172"/>
				<g>
					
						<linearGradient id="SVGID_00000158748491645869506430000002109660267535313834_" gradientUnits="userSpaceOnUse" x1="2643.9495" y1="1160.9667" x2="2527.7349" y2="2050.2644">
						<stop  offset="0" style="stop-color:#FF928E"/>
						<stop  offset="1" style="stop-color:#FE7062"/>
					</linearGradient>
					<path style="fill:url(#SVGID_00000158748491645869506430000002109660267535313834_);" d="M2381.438,3148.84v-24.171
						c-25.198-1.009-50.121-6.956-67.823-14.705c-6.321-2.766-9.543-9.861-7.728-16.518l6.141-22.514
						c2.253-8.259,11.235-12.531,19.131-9.223c17.559,7.361,39.241,13.186,62.62,13.186c24.269,0,42.369-8.229,42.369-25.094
						c0-15.22-13.986-24.269-47.716-33.317c-48.128-13.164-82.683-34.144-82.683-76.513c0-38.258,27.973-67.463,76.512-75.277
						v-24.174c0-7.778,6.306-14.083,14.083-14.083h14.202c7.778,0,14.084,6.305,14.084,14.083v21.704
						c23.316,0.934,40.289,4.92,53.758,9.654c6.901,2.424,10.672,9.858,8.758,16.918l-5.647,20.822
						c-2.177,8.03-10.759,12.428-18.541,9.485c-12.401-4.689-29.934-9.572-52.725-9.572c-28.795,0-37.021,11.927-37.021,22.624
						c0,13.163,17.276,22.213,54.709,33.732c53.477,16.041,75.689,38.254,75.689,78.156c0,36.611-27.149,69.52-79.801,77.748v27.051
						c0,7.778-6.306,14.084-14.083,14.084h-14.204C2387.743,3162.924,2381.438,3156.618,2381.438,3148.84z"/>
				</g>
			</g>
			<g>
				
					<linearGradient id="SVGID_00000039847959797809087970000010621613121346007427_" gradientUnits="userSpaceOnUse" x1="2150.3867" y1="2202.6602" x2="1993.7488" y2="3056.5913">
					<stop  offset="0" style="stop-color:#E1473D"/>
					<stop  offset="1" style="stop-color:#E9605A"/>
				</linearGradient>
				
					<circle style="fill:url(#SVGID_00000039847959797809087970000010621613121346007427_);" cx="2023.679" cy="2893.417" r="356.063"/>
				
					<linearGradient id="SVGID_00000055701694204045082270000003213980077744740528_" gradientUnits="userSpaceOnUse" x1="2256.6921" y1="1110.3595" x2="2140.4778" y2="1999.6563">
					<stop  offset="0" style="stop-color:#FF928E"/>
					<stop  offset="1" style="stop-color:#FE7062"/>
				</linearGradient>
				
					<circle style="fill:url(#SVGID_00000055701694204045082270000003213980077744740528_);" cx="2023.679" cy="2893.417" r="344.224"/>
				<path style="opacity:0.78;fill:#FFFFFF;" d="M1739.832,2755.968c-0.84,0-1.692-0.191-2.492-0.595
					c-2.731-1.378-3.828-4.71-2.449-7.443c26.562-52.623,67.028-97.043,117.021-128.454
					c51.389-32.289,110.785-49.355,171.767-49.355c19.592,0,39.213,1.765,58.319,5.246c3.01,0.549,5.006,3.433,4.458,6.444
					c-0.55,3.011-3.446,5.002-6.444,4.458c-18.451-3.362-37.404-5.068-56.333-5.068c-118.563,0-225.43,65.801-278.897,171.723
					C1743.807,2754.854,1741.856,2755.968,1739.832,2755.968z"/>
				
					<ellipse transform="matrix(0.7071 -0.7071 0.7071 0.7071 -1456.3398 2285.9202)" style="opacity:0.78;fill:#FFFFFF;" cx="2031.18" cy="2900.918" rx="291.343" ry="291.343"/>
				<g>
					
						<linearGradient id="SVGID_00000155118610560096193780000015974806669604527513_" gradientUnits="userSpaceOnUse" x1="2268.2732" y1="1111.8705" x2="2152.0583" y2="2001.1699">
						<stop  offset="0" style="stop-color:#FF928E"/>
						<stop  offset="1" style="stop-color:#FE7062"/>
					</linearGradient>
					<path style="fill:url(#SVGID_00000155118610560096193780000015974806669604527513_);" d="M2002.589,3117.505v-31.696
						c-33.042-1.323-65.725-9.122-88.938-19.284c-8.289-3.628-12.514-12.93-10.134-21.66l8.053-29.524
						c2.953-10.831,14.733-16.433,25.087-12.094c23.027,9.653,51.458,17.291,82.116,17.291c31.825,0,55.561-10.791,55.561-32.906
						c0-19.959-18.34-31.824-62.572-43.69c-63.112-17.263-108.426-44.775-108.426-100.335c0-50.169,36.683-88.466,100.334-98.714
						v-31.701c0-10.199,8.269-18.469,18.469-18.469h18.624c10.199,0,18.469,8.269,18.469,18.469v28.461
						c30.576,1.224,52.832,6.452,70.494,12.659c9.049,3.178,13.995,12.927,11.484,22.186l-7.406,27.304
						c-2.855,10.531-14.108,16.297-24.312,12.438c-16.262-6.15-39.254-12.552-69.141-12.552c-37.76,0-48.547,15.64-48.547,29.667
						c0,17.261,22.655,29.128,71.741,44.235c70.127,21.036,99.256,50.164,99.256,102.488c0,48.01-35.602,91.165-104.647,101.954
						v35.472c0,10.201-8.269,18.47-18.468,18.47h-18.626C2010.858,3135.975,2002.589,3127.706,2002.589,3117.505z"/>
				</g>
			</g>
		</g>
		<g>
			
				<linearGradient id="SVGID_00000129177620914445445540000001882589741148210568_" gradientUnits="userSpaceOnUse" x1="-2310.9131" y1="1714.4791" x2="-2217.1272" y2="1949.7394" gradientTransform="matrix(-1 0 0 1 -1165.4333 0)">
				<stop  offset="0" style="stop-color:#09005D"/>
				<stop  offset="1" style="stop-color:#1A0F91"/>
			</linearGradient>
			<path style="fill:url(#SVGID_00000129177620914445445540000001882589741148210568_);" d="M1089.87,1841.03
				c0,0-31.618,15.379-37.431,33.046c-4.664,14.175-39.625,16.003-43.079,43.881c-1.783,14.394-12.435,25.921-26.771,28.119
				c-35.706,5.473-90.733,24.015-99.538,86.009c-6.72,47.32,17.402,65.263,42.719,71.473c18.594,4.562,30.951,22.647,27.19,41.42
				c-3.607,18.006,1.772,38.821,32.966,55.281c69.902,36.885,139.71-87.383,139.71-87.383l14.306-216.98L1089.87,1841.03z"/>
			
				<linearGradient id="SVGID_00000016056447605319463570000012742745729312173464_" gradientUnits="userSpaceOnUse" x1="1169.0562" y1="2142.2002" x2="1526.1398" y2="1731.2167">
				<stop  offset="0" style="stop-color:#FEBBBA"/>
				<stop  offset="1" style="stop-color:#FF928E"/>
			</linearGradient>
			<path style="fill:url(#SVGID_00000016056447605319463570000012742745729312173464_);" d="M1470.228,1789.591
				c0,0-139.569,220.759-305.533,263.399c0,0,32.339,92.107,57.299,102.648c0,0,204.183-170.367,256.654-334.678L1470.228,1789.591z
				"/>
			
				<linearGradient id="SVGID_00000111192972092998158330000011499280329228678295_" gradientUnits="userSpaceOnUse" x1="-1998.0276" y1="3773.3633" x2="-2078.8726" y2="4415.0732" gradientTransform="matrix(-1 0 0 1 -1165.4333 0)">
				<stop  offset="0" style="stop-color:#09005D"/>
				<stop  offset="1" style="stop-color:#1A0F91"/>
			</linearGradient>
			<path style="fill:url(#SVGID_00000111192972092998158330000011499280329228678295_);" d="M802.544,3201.566l-4.524,37.186
				c-0.858,7.054-6.412,12.633-13.473,13.439c-11.921,1.362-31.051,2.758-49.768,0.779c-8.216-0.868-13.549-9.188-11.046-17.061
				c4.563-14.355,12.91-35.905,24.945-48.586h41.251C797.556,3187.324,803.465,3193.996,802.544,3201.566z"/>
			
				<linearGradient id="SVGID_00000008844277265218195840000014850637295809871273_" gradientUnits="userSpaceOnUse" x1="-2304.114" y1="3534.25" x2="-2189.6689" y2="2196.6733" gradientTransform="matrix(-1 0 0 1 -1165.4333 0)">
				<stop  offset="0" style="stop-color:#FEBBBA"/>
				<stop  offset="1" style="stop-color:#FF928E"/>
			</linearGradient>
			<path style="fill:url(#SVGID_00000008844277265218195840000014850637295809871273_);" d="M1125.636,2765.954l6.963,40.957
				c0,0-23.316,236.173-27.464,330.643c-0.65,14.811,3.181,29.448,10.955,42.071l40.543,65.838l-103.039-60.802l-2.051-12.574
				l16.868-23.192l-22.094-264.572c-1.298-15.543,1.909-31.13,9.238-44.897l21.313-40.039L1125.636,2765.954z"/>
			
				<linearGradient id="SVGID_00000082336750818897654150000010514859330348419468_" gradientUnits="userSpaceOnUse" x1="-2337.7334" y1="3730.5649" x2="-2418.5784" y2="4372.2749" gradientTransform="matrix(-1 0 0 1 -1165.4333 0)">
				<stop  offset="0" style="stop-color:#09005D"/>
				<stop  offset="1" style="stop-color:#1A0F91"/>
			</linearGradient>
			<path style="fill:url(#SVGID_00000082336750818897654150000010514859330348419468_);" d="M1163.419,3255h-32.882
				c-6.155,0-11.959-2.826-15.713-7.703c-10.251-13.319-31.489-39.306-41.644-39.985c-13.671-0.913-11.922,47.688-11.922,47.688
				h-7.663l-9.707-60.393c-2.442-15.195,5.115-30.248,18.759-37.368c0,0,3.125,23.111,20.07,33.334
				c16.945,10.223,68.955,46.832,68.955,46.832s6.37-0.908,13.364,0.356C1175.411,3239.636,1173.962,3255,1163.419,3255z"/>
			
				<linearGradient id="SVGID_00000083055934928482226990000001584921833045579710_" gradientUnits="userSpaceOnUse" x1="-2073.9009" y1="3554.1523" x2="-1959.4257" y2="2216.2241" gradientTransform="matrix(-1 0 0 1 -1165.4333 0)">
				<stop  offset="0" style="stop-color:#FEBBBA"/>
				<stop  offset="1" style="stop-color:#FF928E"/>
			</linearGradient>
			<path style="fill:url(#SVGID_00000083055934928482226990000001584921833045579710_);" d="M984.507,2785.407
				c0,0-136.593,259.104-158.306,318.261c-21.713,59.157-29.319,108.508-29.611,113.181c-0.455,7.302-9.538,14.306-34.574,14.306
				c-12.921,0-19.248-5.179-22.347-10.192c-2.644-4.277-2.78-9.629-0.553-14.137c7.901-15.99,32.976-67.092,42.262-90.269
				c11.088-27.673,34.937-153.081,48.017-196.683c13.08-43.603,27.865-90.901,84.825-134.468
				C914.221,2785.407,953.323,2747.11,984.507,2785.407z"/>
			
				<linearGradient id="SVGID_00000004546879754365492440000000726659242127950473_" gradientUnits="userSpaceOnUse" x1="2836.1216" y1="642.4304" x2="1892.8793" y2="1518.2982">
				<stop  offset="0" style="stop-color:#FF928E"/>
				<stop  offset="1" style="stop-color:#FE7062"/>
			</linearGradient>
			<path style="fill:url(#SVGID_00000004546879754365492440000000726659242127950473_);" d="M1070.795,2360.852
				c35.235-149.304-54.026-233.749-54.026-233.749c56.322-54.062,158.939-78.663,158.939-78.663s97.919,71.588,86.303,127.621
				c-6.808,32.842-68.828,196.713-68.828,196.713S1135.835,2399.915,1070.795,2360.852z"/>
			
				<linearGradient id="SVGID_00000134237631180648311380000008645689832535807645_" gradientUnits="userSpaceOnUse" x1="1306.5569" y1="2383.7842" x2="482.9449" y2="3161.9194">
				<stop  offset="0" style="stop-color:#E1473D"/>
				<stop  offset="1" style="stop-color:#E9605A"/>
			</linearGradient>
			<path style="fill:url(#SVGID_00000134237631180648311380000008645689832535807645_);" d="M992.674,2434.768
				c14.339-43.198,78.121-73.916,78.121-73.916c65.04,39.063,122.388,11.922,122.388,11.922s12.861,49.16,3.984,94.845
				c-8.877,45.686-64.569,339.292-64.569,339.292c-87.753,17.781-222.714-17.889-222.714-17.889
				C965.779,2689.784,978.335,2477.967,992.674,2434.768z"/>
			
				<linearGradient id="SVGID_00000109748469634557323510000016151204077210174337_" gradientUnits="userSpaceOnUse" x1="-2316.6648" y1="2215.7998" x2="-2295.1667" y2="2058.5249" gradientTransform="matrix(-1 0 0 1 -1165.4333 0)">
				<stop  offset="0" style="stop-color:#FEBBBA"/>
				<stop  offset="1" style="stop-color:#FF928E"/>
			</linearGradient>
			<path style="fill:url(#SVGID_00000109748469634557323510000016151204077210174337_);" d="M1111.694,1949.775l-28.647,128.675
				c-2.743,11.334,7.59,9.479,19.049,7.319c18.766-3.538,42.952-10.824,51.037-25.427c0.823-1.486,1.234-3.166,1.466-4.849
				l12.307-89.226c0.976-7.079-2.85-13.95-9.383-16.846l-23.749-10.531C1124.63,1934.835,1114.047,1940.053,1111.694,1949.775z"/>
			<g>
				
					<linearGradient id="SVGID_00000070837694821112594640000010748124446088736929_" gradientUnits="userSpaceOnUse" x1="-2498.4683" y1="1672.1208" x2="-2310.8882" y2="1338.2913" gradientTransform="matrix(-0.9809 -0.1943 -0.1943 0.9809 -936.3432 -99.2406)">
					<stop  offset="0" style="stop-color:#FEBBBA"/>
					<stop  offset="1" style="stop-color:#FF928E"/>
				</linearGradient>
				<path style="fill:url(#SVGID_00000070837694821112594640000010748124446088736929_);" d="M1166.563,1832.474
					c0,0,30.498,20.644,43.602,73.218c13.105,52.573-8.192,71.432-30.022,70.276s-53.483-7.907-80.907-45.623
					C1071.812,1892.629,1126.599,1807.248,1166.563,1832.474z"/>
				
					<linearGradient id="SVGID_00000080208348206449504300000001871344013266510754_" gradientUnits="userSpaceOnUse" x1="-2458.1274" y1="1381.4084" x2="-2364.3376" y2="1616.6783" gradientTransform="matrix(-0.9809 -0.1943 -0.1943 0.9809 -936.3432 -99.2406)">
					<stop  offset="0" style="stop-color:#09005D"/>
					<stop  offset="1" style="stop-color:#1A0F91"/>
				</linearGradient>
				<path style="fill:url(#SVGID_00000080208348206449504300000001871344013266510754_);" d="M1126.892,1909.14
					c0,0-11.174-75.333,51.371-63.81l12.647,13.167c0,0,30.614-34.477-3.265-60.539c-33.879-26.062-80.893-19.388-106.903,28.058
					c-26.01,47.446-35.45,80.786-13.649,110.268c21.801,29.483,38.2,4.197,38.2,4.197s-9.998-25.517-1.702-36.467
					c8.296-10.95,19,6.368,19,6.368L1126.892,1909.14z"/>
				
					<linearGradient id="SVGID_00000083805514036089890350000011739261790178914229_" gradientUnits="userSpaceOnUse" x1="-2458.5403" y1="1694.5592" x2="-2270.9604" y2="1360.7301" gradientTransform="matrix(-0.9809 -0.1943 -0.1943 0.9809 -936.3432 -99.2406)">
					<stop  offset="0" style="stop-color:#FEBBBA"/>
					<stop  offset="1" style="stop-color:#FF928E"/>
				</linearGradient>
				<path style="fill:url(#SVGID_00000083805514036089890350000011739261790178914229_);" d="M1118.344,1915.592
					c0,0-5.517-38.758-25.312-27.679c-19.795,11.08,7.134,36.206,17.931,44.755L1118.344,1915.592z"/>
			</g>
			<g>
				
					<linearGradient id="SVGID_00000156549237228880344620000017476073054373229479_" gradientUnits="userSpaceOnUse" x1="1175.7502" y1="2148.0159" x2="1532.8344" y2="1737.032">
					<stop  offset="0" style="stop-color:#FEBBBA"/>
					<stop  offset="1" style="stop-color:#FF928E"/>
				</linearGradient>
				<path style="fill:url(#SVGID_00000156549237228880344620000017476073054373229479_);" d="M1469.269,1835.038
					c0.423,4.554-16.511,7.701-21.901-11.712c1.481-8.428,4.113-45.337,10.575-51.071c34.419-30.54,95.794-64.895,95.794-64.895
					c6.865,10.48-2.138,17.382-2.138,17.382l-30.637,20.676c3.196,10.585,7.86,19.944,8.387,32.029
					c0.4,9.152-2.981,18.112-9.056,25.053c-6.097,6.967-14.305,15.962-21.705,22.792
					C1484.584,1838.217,1469.269,1835.038,1469.269,1835.038z"/>
				
					<linearGradient id="SVGID_00000085230345495872614810000001137908560242930617_" gradientUnits="userSpaceOnUse" x1="1537.4037" y1="1693.817" x2="1658.6779" y2="1473.7272">
					<stop  offset="0" style="stop-color:#FEBBBA"/>
					<stop  offset="1" style="stop-color:#FF928E"/>
				</linearGradient>
				<path style="fill:url(#SVGID_00000085230345495872614810000001137908560242930617_);" d="M1485.911,1819.992l-4.682-1.926
					c0.622-1.515,15.325-37.242,22.435-44.674c2.703-2.819,4.007-5.234,3.886-7.181c-0.06-1.054-0.582-2.094-1.572-3.154
					l-24.79,13.258l-10.95,17.144l-4.268-2.729l11.659-18.261l29.038-15.526l1.311,1.067c2.937,2.401,4.455,4.98,4.629,7.89
					c0.214,3.465-1.512,7.06-5.278,10.997C1501.971,1782.493,1490.051,1809.901,1485.911,1819.992z"/>
			</g>
			<g>
				
					<linearGradient id="SVGID_00000171684950416812414210000015485648716415882145_" gradientUnits="userSpaceOnUse" x1="-3556.188" y1="2253.8098" x2="-3762.3679" y2="2310.3184" gradientTransform="matrix(-0.9988 -0.0494 -0.0494 0.9988 -2381.2668 -55.0328)">
					<stop  offset="0" style="stop-color:#09005D"/>
					<stop  offset="1" style="stop-color:#1A0F91"/>
				</linearGradient>
				<path style="fill:url(#SVGID_00000171684950416812414210000015485648716415882145_);" d="M1102.721,2439.619
					c0.195,0.01,0.391,0.015,0.589,0.013l255.922-0.276c6.326-0.005,11.449-5.085,11.443-11.345
					c-0.006-6.262-5.159-11.435-11.468-11.322l-255.922,0.276c-6.326,0.005-11.449,5.085-11.443,11.345
					C1091.848,2434.375,1096.668,2439.323,1102.721,2439.619z"/>
				
					<linearGradient id="SVGID_00000129912992215584282900000013963488339249382555_" gradientUnits="userSpaceOnUse" x1="-3761.6506" y1="2240.1814" x2="-3907.0847" y2="2393.896" gradientTransform="matrix(-1 0 0 1 -2422.7358 0)">
					<stop  offset="0" style="stop-color:#09005D"/>
					<stop  offset="1" style="stop-color:#1A0F91"/>
				</linearGradient>
				<path style="fill:url(#SVGID_00000129912992215584282900000013963488339249382555_);" d="M1589.294,2209.712H1376.16
					c-15.723,0-30.034,8.978-36.74,23.048l-98.531,206.723h264.868c10.132,0,19.236-6.125,22.96-15.449l76.407-191.292
					C1609.538,2221.69,1601.305,2209.712,1589.294,2209.712z"/>
				
					<linearGradient id="SVGID_00000093884373507859525440000015748197957352571058_" gradientUnits="userSpaceOnUse" x1="-3849.8389" y1="2278.6011" x2="-3915.5793" y2="2377.5986" gradientTransform="matrix(-1 0 0 1 -2422.7358 0)">
					<stop  offset="0" style="stop-color:#4F52FF"/>
					<stop  offset="1" style="stop-color:#4042E2"/>
				</linearGradient>
				<path style="fill:url(#SVGID_00000093884373507859525440000015748197957352571058_);" d="M1439.139,2315.706
					c-4.619,14.198-1.207,27.987,7.621,30.798c8.828,2.812,19.728-6.419,24.347-20.617c4.619-14.198,1.207-27.987-7.621-30.798
					S1443.758,2301.508,1439.139,2315.706z"/>
			</g>
			
				<linearGradient id="SVGID_00000111901310771241497660000010628004077869194935_" gradientUnits="userSpaceOnUse" x1="756.2769" y1="2419.2195" x2="1205.8905" y2="2231.1292">
				<stop  offset="0" style="stop-color:#FEBBBA"/>
				<stop  offset="1" style="stop-color:#FF928E"/>
			</linearGradient>
			<path style="fill:url(#SVGID_00000111901310771241497660000010628004077869194935_);" d="M1016.402,2127.411
				c-34.919,35.237-79.223,191.423-57.242,217.511c19.354,30.37,85.253,71.711,148.005,71.766h92.585
				c-38.904-41.335-65.69-51.82-97.596-22.915c-25.315-10.816-58.139-52.718-80.048-71.425c-8.602-7.345-10.632-19.875-4.879-29.615
				c17.405-29.465,39.233-59.759,46.174-89.101C1064.89,2169.247,1039.445,2129.893,1016.402,2127.411z"/>
		</g>
		<g>
			<g>
				
					<linearGradient id="SVGID_00000107563915010213272990000001526688985553051022_" gradientUnits="userSpaceOnUse" x1="1406.8688" y1="1000.3195" x2="1289.3733" y2="1899.4185">
					<stop  offset="0" style="stop-color:#FF928E"/>
					<stop  offset="1" style="stop-color:#FE7062"/>
				</linearGradient>
				<path style="fill:url(#SVGID_00000107563915010213272990000001526688985553051022_);" d="M1890.744,1120.803H946.973
					c-5.705,0-10.329-4.625-10.329-10.329V706.672c0-5.705,4.625-10.329,10.329-10.329h943.771c5.705,0,10.329,4.625,10.329,10.329
					v403.801C1901.073,1116.178,1896.448,1120.803,1890.744,1120.803z"/>
				<path style="opacity:0.5;fill:#FFFFFF;" d="M1867.407,1100.261H970.309c-5.705,0-10.329-4.625-10.329-10.329V729.13
					c0-5.705,4.625-10.329,10.329-10.329h897.098c5.705,0,10.329,4.625,10.329,10.329v360.802
					C1877.737,1095.637,1873.112,1100.261,1867.407,1100.261z"/>
			</g>
			<g>
				<circle style="fill:#FFFFFF;" cx="1116.088" cy="862.739" r="115.45"/>
				<circle style="fill:#FFFFFF;" cx="1402.023" cy="862.739" r="115.45"/>
				
					<ellipse transform="matrix(0.7071 -0.7071 0.7071 0.7071 -118.039 1448.0646)" style="fill:#FFFFFF;" cx="1688.949" cy="866.518" rx="115.45" ry="115.45"/>
				<g>
					
						<linearGradient id="SVGID_00000071538469884362614480000017178587875414872251_" gradientUnits="userSpaceOnUse" x1="1716.9619" y1="32.3638" x2="1144.2787" y2="827.3822">
						<stop  offset="0" style="stop-color:#FF928E"/>
						<stop  offset="1" style="stop-color:#FE7062"/>
					</linearGradient>
					<path style="fill:url(#SVGID_00000071538469884362614480000017178587875414872251_);" d="M1184.687,838.34
						c3.573,8.689,5.557,18.2,5.557,28.178c0,40.956-33.201,74.157-74.156,74.157c-40.956,0-74.157-33.201-74.157-74.157
						c0-40.955,33.201-74.156,74.157-74.156c1.254,0,2.501,0.033,3.741,0.095v-18.798c-1.241-0.049-2.487-0.081-3.741-0.081
						c-51.33,0-92.941,41.611-92.941,92.941c0,51.33,41.611,92.941,92.941,92.941c51.33,0,92.941-41.611,92.941-92.941
						c0-12.639-2.527-24.686-7.097-35.671L1184.687,838.34z"/>
					
						<linearGradient id="SVGID_00000183214858488930373610000006165879862938249403_" gradientUnits="userSpaceOnUse" x1="1902.1576" y1="165.768" x2="1329.4742" y2="960.7864">
						<stop  offset="0" style="stop-color:#FF928E"/>
						<stop  offset="1" style="stop-color:#FE7062"/>
					</linearGradient>
					<path style="fill:url(#SVGID_00000183214858488930373610000006165879862938249403_);" d="M1441.267,929.259
						c-11.441,7.221-24.983,11.415-39.513,11.415c-40.956,0-74.157-33.201-74.157-74.157c0-40.955,33.201-74.156,74.157-74.156
						c1.255,0,2.501,0.033,3.741,0.095v-18.798c-1.241-0.049-2.487-0.081-3.741-0.081c-51.33,0-92.941,41.611-92.941,92.941
						c0,51.33,41.611,92.941,92.941,92.941c17.914,0,34.641-5.073,48.832-13.854L1441.267,929.259z"/>
					
						<linearGradient id="SVGID_00000000194022585304513270000008392950114078665632_" gradientUnits="userSpaceOnUse" x1="2095.136" y1="304.7775" x2="1522.453" y2="1099.7954">
						<stop  offset="0" style="stop-color:#FF928E"/>
						<stop  offset="1" style="stop-color:#FE7062"/>
					</linearGradient>
					<path style="fill:url(#SVGID_00000000194022585304513270000008392950114078665632_);" d="M1751.823,908.211
						c-13.347,19.594-35.832,32.463-61.327,32.463c-40.956,0-74.157-33.201-74.157-74.157c0-40.955,33.201-74.156,74.157-74.156
						c1.254,0,2.501,0.033,3.74,0.095v-18.798c-1.241-0.049-2.487-0.081-3.74-0.081c-51.33,0-92.941,41.611-92.941,92.941
						c0,51.33,41.611,92.941,92.941,92.941c31.754,0,59.784-15.928,76.548-40.227L1751.823,908.211z"/>
				</g>
				<g>
					<path style="opacity:0.5;fill:#FFFFFF;" d="M1210.979,1027.093h-188.136c-11.809,0-21.382,9.573-21.382,21.382
						c0,11.808,9.573,21.381,21.382,21.381h188.136c11.808,0,21.382-9.573,21.382-21.381
						C1232.361,1036.666,1222.788,1027.093,1210.979,1027.093z"/>
					<path style="opacity:0.5;fill:#FFFFFF;" d="M1497.905,1027.093H1309.77c-11.809,0-21.382,9.573-21.382,21.382
						c0,11.808,9.573,21.381,21.382,21.381h188.136c11.809,0,21.382-9.573,21.382-21.381
						C1519.287,1036.666,1509.714,1027.093,1497.905,1027.093z"/>
					<path style="opacity:0.5;fill:#FFFFFF;" d="M1594.881,1069.856h188.136c11.809,0,21.381-9.573,21.381-21.381
						c0-11.809-9.573-21.382-21.381-21.382h-188.136c-11.809,0-21.382,9.573-21.382,21.382
						C1573.5,1060.283,1583.073,1069.856,1594.881,1069.856z"/>
				</g>
			</g>
		</g>
	</g>
</g>
</svg>
